<svg xmlns="http://www.w3.org/2000/svg" viewBox="0 0 1600 900"><defs><linearGradient id="g" x2="1" y2="1"><stop stop-color="#240608"/><stop offset=".5" stop-color="#6e1015"/><stop offset="1" stop-color="#090909"/></linearGradient><radialGradient id="r"><stop stop-color="#ff3b30" stop-opacity=".75"/><stop offset="1" stop-color="#100000" stop-opacity="0"/></radialGradient></defs><rect width="1600" height="900" fill="url(#g)"/><circle cx="1250" cy="250" r="420" fill="url(#r)"/><path fill="#090909" d="M0 720L170 610l110 70 150-130 160 90 120-160 160 130 130-210 180 180 140-120 150 110 130-100v330H0z"/><g fill="#171717"><rect x="870" y="420" width="260" height="300"/><path d="M820 420h360l-55-70H875z"/><rect x="925" y="500" width="65" height="220" fill="#050505"/><rect x="1030" y="500" width="65" height="80" fill="#6e1015"/></g><g stroke="#ff3b30" opacity=".35" fill="none"><path d="M50 120h700M120 160h520M1000 780h450"/><circle cx="1180" cy="410" r="160"/></g></svg>